{
    "accessors" : [
        {
            "bufferView" : 0,
            "componentType" : 5123,
            "count" : 3516,
            "max" : [
                843
            ],
            "min" : [
                0
            ],
            "type" : "SCALAR"
        },
        {
            "bufferView" : 1,
            "componentType" : 5126,
            "count" : 844,
            "max" : [
                0.17162999510765076,
                0.31144800782203674,
                -0.00011800000356743112
            ],
            "min" : [
                -0.1377200037240982,
                -0.06945399940013885,
                -0.24146400392055511
            ],
            "type" : "VEC3"
        },
        {
            "bufferView" : 2,
            "componentType" : 5126,
            "count" : 844,
            "max" : [
                1.0,
                1.0,
                1.0
            ],
            "min" : [
                -1.0,
                -1.0,
                -1.0
            ],
            "type" : "VEC3"
        },
        {
            "bufferView" : 3,
            "componentType" : 5126,
            "count" : 844,
            "max" : [
                1.0,
                1.0,
                1.0,
                1.0
            ],
            "min" : [
                -1.0,
                -0.9994829297065735,
                -0.9969467520713806,
                -1.0
            ],
            "type" : "VEC4"
        },
        {
            "bufferView" : 4,
            "componentType" : 5126,
            "count" : 844,
            "max" : [
                0.9994310140609741,
                1.0006939999875613
            ],
            "min" : [
                -0.3833639919757843,
                -0.0012099742889404297
            ],
            "type" : "VEC2"
        }
    ],
    "asset" : {
        "generator" : "Khronos Blender glTF 2.0 exporter",
        "version" : "2.0"
    },
    "bufferViews" : [
        {
            "buffer" : 0,
            "byteLength" : 7032,
            "byteOffset" : 0,
            "target" : 34963
        },
        {
            "buffer" : 0,
            "byteLength" : 10128,
            "byteOffset" : 7032,
            "target" : 34962
        },
        {
            "buffer" : 0,
            "byteLength" : 10128,
            "byteOffset" : 17160,
            "target" : 34962
        },
        {
            "buffer" : 0,
            "byteLength" : 13504,
            "byteOffset" : 27288,
            "target" : 34962
        },
        {
            "buffer" : 0,
            "byteLength" : 6752,
            "byteOffset" : 40792,
            "target" : 34962
        }
    ],
    "buffers" : [
        {
            "byteLength" : 47544,
            "uri" : "video_marker.bin"
        }
    ],
    "images" : [
        {
            "name" : "camera_d",
            "uri" : "camera_d.jpg"
        }
    ],
    "materials" : [
        {
            "alphaMode" : "BLEND",
            "name" : "camera",
            "pbrMetallicRoughness" : {
                "baseColorFactor" : [
                    1.0,
                    1.0,
                    1.0,
                    0.0
                ],
                "baseColorTexture" : {
                    "index" : 0
                },
                "metallicFactor" : 0.0
            }
        }
    ],
    "meshes" : [
        {
            "name" : "camera",
            "primitives" : [
                {
                    "attributes" : {
                        "NORMAL" : 2,
                        "POSITION" : 1,
                        "TANGENT" : 3,
                        "TEXCOORD_0" : 4
                    },
                    "indices" : 0,
                    "material" : 0
                }
            ]
        }
    ],
    "nodes" : [
        {
            "mesh" : 0,
            "name" : "camera",
            "rotation" : [
                0.7071068286895752,
                0.7071068286895752,
                1.5454311608209537e-08,
                4.636293482462861e-08
            ],
            "scale" : [
                50.0,
                50.0,
                50.0
            ],
            "translation" : [
                -0.6955554485321045,
                -0.9098966121673584,
                -5.778156757354736
            ]
        }
    ],
    "samplers" : [
        {}
    ],
    "scene" : 0,
    "scenes" : [
        {
            "name" : "Scene",
            "nodes" : [
                0
            ]
        }
    ],
    "textures" : [
        {
            "sampler" : 0,
            "source" : 0
        }
    ]
}
